<svg height="48px" width="48px" version="1.1" id="Layer_1" xmlns="http://www.w3.org/2000/svg" xmlns:xlink="http://www.w3.org/1999/xlink" viewBox="0 0 512 512" xml:space="preserve" fill="#000000"><g id="SVGRepo_bgCarrier" stroke-width="0"></g><g id="SVGRepo_tracerCarrier" stroke-linecap="round" stroke-linejoin="round"></g><g id="SVGRepo_iconCarrier"> <circle style="fill:#D35933;" cx="256" cy="256" r="256"></circle> <path style="fill:#B54324;" d="M279.087,510.952c105.539-9.437,192.626-82.908,222.137-181.293L303.852,132.287l-24.723,70.082 L142.222,374.088L279.087,510.952z"></path> <path style="fill:#386895;" d="M369.778,261.747c0-18.884-15.308-34.19-34.19-34.19H176.414 c-18.884-0.002-34.192,15.307-34.192,34.19v112.34h227.556V261.747z"></path> <path style="fill:#273B7A;" d="M369.778,261.747c0-18.884-15.308-34.19-34.19-34.19h-80.162v146.532h114.352V261.747z"></path> <circle style="fill:#FFEDB5;" cx="256" cy="184.889" r="71.111"></circle> <path style="fill:#FEE187;" d="M256,113.778c-0.193,0-0.383,0.014-0.574,0.014v142.193c0.191,0.002,0.381,0.014,0.574,0.014 c39.274,0,71.111-31.837,71.111-71.111S295.274,113.778,256,113.778z"></path> <circle style="fill:#FFC61B;" cx="369.778" cy="369.778" r="56.889"></circle> <path style="fill:#273B7A;" d="M398.222,364.606h-23.273v-23.273c0-2.857-2.315-5.172-5.172-5.172s-5.172,2.315-5.172,5.172v23.273 h-23.273c-2.857,0-5.172,2.315-5.172,5.172s2.315,5.172,5.172,5.172h23.273v23.273c0,2.857,2.315,5.172,5.172,5.172 s5.172-2.315,5.172-5.172v-23.273h23.273c2.857,0,5.172-2.315,5.172-5.172S401.079,364.606,398.222,364.606z"></path> </g></svg>