<svg fill="#ffffff" version="1.1" id="Layer_1" xmlns="http://www.w3.org/2000/svg" xmlns:xlink="http://www.w3.org/1999/xlink" viewBox="0 0 24 24" xml:space="preserve" width="43px" height="43px" stroke="#ffffff" stroke-width="0.00024000000000000003"><g id="SVGRepo_bgCarrier" stroke-width="0"></g><g id="SVGRepo_tracerCarrier" stroke-linecap="round" stroke-linejoin="round"></g><g id="SVGRepo_iconCarrier"> <style type="text/css"> .st0{fill:none;} </style> <path d="M20,2H4C2.9,2,2,2.9,2,4v16c0,1.1,0.9,2,2,2h16c1.1,0,2-0.9,2-2V4C22,2.9,21.1,2,20,2z M13,17h-2v-2h2V17z M13,14h-2 c0-2.6,2-2.1,2-4.2c0-0.4-0.2-1.3-1.1-1.3c-0.3,0-1,0.5-1,1.5H9c0,0-0.4-3,2.9-3C14.5,7,15,8.9,15,9.8C15,12.1,13,12.3,13,14z"></path> <rect class="st0" ></rect> </g></svg>